<?xml version="1.0" encoding="utf-8"?>
<!-- Generator: Adobe Illustrator 27.5.0, SVG Export Plug-In . SVG Version: 6.00 Build 0)  -->
<svg version="1.1" id="katman_1" xmlns="http://www.w3.org/2000/svg" xmlns:xlink="http://www.w3.org/1999/xlink" x="0px" y="0px"
	 viewBox="0 0 841.89 595.28" style="enable-background:new 0 0 841.89 595.28;" xml:space="preserve">
<style type="text/css">
	.st0{fill:#0B996E;}
	.st1{fill-rule:evenodd;clip-rule:evenodd;}
</style>
<path class="st0" d="M643.47,278.31c0-31.09,19.67-52.95,47.65-52.95c27.98,0,47.96,21.85,47.96,52.95s-19.98,51.71-47.96,51.71
	C663.14,330.02,643.47,308.47,643.47,278.31z M614.26,278.31c0,45.87,31.98,78.19,76.86,78.19c44.88,0,77.17-32.32,77.17-78.19
	s-31.98-79.42-77.17-79.42C645.92,198.89,614.26,231.84,614.26,278.31z M465.14,200.74l60.26,153.92h28.29l60.26-153.92h-30.44
	l-43.66,118.83h-0.62l-43.66-118.83H465.14z M348,272.76c1.84-28.33,20.6-47.4,46.12-47.4c22.13,0,38.74,14.16,41.2,35.41h-51.04
	c-18.14,0-27.98,2.15-35.35,12.01H348V272.76z M318.8,277.38c0,45.87,32.28,79.11,76.86,79.11c30.13,0,56.57-15.39,67.94-39.72
	L439,304.46c-8.61,16.01-25.21,25.55-43.35,25.55c-21.84,0-41.51-16.63-41.51-32.63c0-8.31,5.54-12.01,13.53-12.01h97.46v-8.31
	c0-46.18-29.51-78.19-71.94-78.19s-74.4,32.94-74.4,78.5 M235.17,354.64h27.67v-94.49c0-20.32,12.6-34.79,30.13-34.79
	c7.38,0,15.06,2.46,18.76,5.84c2.77-7.39,7.07-14.77,13.53-22.16c-7.38-6.15-19.98-10.16-32.28-10.16
	c-33.82,0-57.8,25.24-57.8,61.26V354.64L235.17,354.64z M101.44,252.76v-75.12h45.5c15.37,0,25.52,8.93,25.52,22.47
	c0,15.39-13.22,27.09-40.27,36.01c-18.45,5.84-26.74,10.77-29.82,16.63L101.44,252.76z M101.44,328.18v-31.4
	c0-13.85,11.68-27.4,27.98-32.63c14.45-4.93,26.44-9.85,36.59-15.08c13.53,8.01,21.82,21.85,21.82,36.32
	c0,24.62-23.37,42.79-55.03,42.79H101.44z M73.77,354.65h61.49c46.74,0,81.78-29.24,81.78-68.03c0-21.24-10.76-40.32-29.82-52.64
	c9.84-9.85,14.45-21.24,14.45-35.1c0-28.62-20.6-47.71-51.65-47.71H73.77V354.65z"/>
<path d="M73.77,432h5.07v-18.36h20.84v-4.59H78.84v-14.74h23.31v-4.59H73.77V432z"/>
<path d="M121.88,432.96c8.52,0,16.25-6.4,16.25-16.67c0-10.03-7.73-16.43-16.25-16.43c-8.52,0-16.25,6.4-16.25,16.43
	C105.63,426.56,113.36,432.96,121.88,432.96z M110.58,416.29c0-7.49,4.65-12.08,11.29-12.08c6.64,0,11.29,4.59,11.29,12.08
	c0,7.67-4.65,12.32-11.29,12.32C115.23,428.61,110.58,423.96,110.58,416.29z"/>
<path d="M145.54,432h4.83v-11.11c0-5.86,1.03-10.15,3.68-12.8c2.11-2.11,5.19-3.2,9.54-3.38v-4.35c-7.73,0-11.6,3.44-12.98,10.09
	h-0.24l-0.18-9.6h-4.65V432z"/>
<path d="M169.31,432h4.89v-16.37c0-7.31,3.93-11.29,8.88-11.29c4.65,0,7.73,3.38,7.73,8.52V432h4.83v-16.06
	c0-6.95,3.56-11.6,8.94-11.6c4.65,0,7.73,3.38,7.73,8.52V432h4.83v-20.71c0-6.82-4.23-11.41-10.63-11.41
	c-5.19,0-9.18,3.02-10.75,8.52h-0.42c-1.03-5.19-4.89-8.52-10.33-8.52c-5.19,0-8.94,3.02-10.51,8.52h-0.3l-0.36-7.55h-4.59
	L169.31,432z"/>
<path d="M240.05,432.96c7.73,0,13.47-4.77,14.37-11.9h-4.95c-0.91,4.29-4.23,7.67-9.42,7.67c-6.04,0-10.51-3.99-10.63-11.54h25.12
	c0.06-0.78,0.12-1.51,0.12-2.23c0-8.82-6.28-15.1-14.74-15.1c-9.06,0-15.34,5.98-15.34,16.43
	C224.59,427.53,231.05,432.96,240.05,432.96z M229.42,413.82c0.42-6.4,4.71-9.72,10.33-9.72c5.98,0,9.6,3.87,9.97,9.72H229.42z"/>
<path d="M262.08,432h4.83v-11.11c0-5.86,1.03-10.15,3.68-12.8c2.11-2.11,5.19-3.2,9.54-3.38v-4.35c-7.73,0-11.6,3.44-12.98,10.09
	h-0.24l-0.18-9.6h-4.65V432z"/>
<path d="M285.66,389.72V432h4.83v-42.27H285.66z"/>
<path d="M301.06,443.65c5.25,0,8.21-3.56,11.05-10.57l13.23-32.25h-5.31l-5.31,13.95c-1.45,3.68-3.08,7.73-4.53,11.72h-0.24
	c-1.33-3.99-2.84-8.15-4.17-11.84l-5.01-13.83h-5.38l11.96,31.04l-1.15,2.72c-1.57,3.62-3.08,4.77-6.16,4.77
	c-1.03,0-2.23-0.18-3.68-0.54v4.11C298.1,443.41,299.67,443.65,301.06,443.65z"/>
<path class="st1" d="M558.72,381.92c-0.93-0.9-2.19-1.35-3.47-1.24c-1.28-0.11-2.54,0.34-3.47,1.24c-0.93,0.9-1.46,2.17-1.43,3.49
	c0.19,2.65,2.33,4.7,4.91,4.7c2.58,0,4.73-2.05,4.91-4.7C560.18,384.09,559.66,382.82,558.72,381.92z M533.07,434.12h7.44
	l0.05-52.45h-7.97v21.09c-2.46-4.43-8.67-6.6-13.27-6.6c-10.98,0-19.18,6.82-19.18,19.43c0,12.31,8.36,19.43,19.34,19.43
	c5.2,0.2,10.15-2.35,13.11-6.76L533.07,434.12z M386.87,402.6c-4.91,0-8.06,1.64-8.06,4.57c0,2.93,3.31,4.21,8.22,4.73
	c6.98,0.6,16.04,1.81,16.04,11.4c0,6.84-6.37,11.7-16.11,11.7c-6.15,0-12.05-1.37-17.26-6.84l4.14-5.47
	c3.48,3.53,8.17,5.49,13.05,5.47c4.22,0,8.36-1.29,8.36-4.73c0-3.45-3.23-4.58-8.83-5.1c-7.06-0.6-15.42-2.73-15.42-10.94
	c0-8.2,8.68-11.25,15.73-11.25c5.26-0.11,10.4,1.61,14.6,4.87l-4.14,4.88C394.19,403.66,390.57,402.5,386.87,402.6z M429.23,427.81
	c3.98,0,8.6-1.37,10.98-3.98l5.15,4.87c-3.92,4.28-10.45,6.3-16.27,6.3c-12.44,0-20.42-7.58-20.42-19.43
	c0-11.25,8.28-19.43,20.26-19.43c11.14,0,18.81,6.37,18.81,19.14c0,1.04-0.08,2.17-0.16,3.3h-30.66
	C417.57,424.35,422.22,427.81,429.23,427.81z M416.98,412.13c1.21-6,6.2-9.08,11.95-9.08c6.57,0,10.55,3.14,11,9.08H416.98z
	 M484.34,413.32c0-6.37-3.69-10.05-10.21-10.05c-2.88-0.03-5.64,1.16-7.65,3.28c-2.01,2.13-3.08,5.01-2.97,7.97v19.6h-7.96v-37.07
	h7.22l0.46,5.17c3.16-3.87,7.82-6.1,12.73-6.07c9.13,0,16.27,5.55,16.27,17.11v20.87h-7.96L484.34,413.32z M508.05,415.57
	c0,7.51,5.22,12.24,11.95,12.24c6.54,0,11.84-5.46,11.84-12.2c0-6.74-5.3-12.2-11.84-12.2
	C513.27,403.42,508.05,408.07,508.05,415.57z M559.17,434.12h-7.97v-37.07h7.97V434.12z M588.4,403.27
	c6.53,0,10.21,3.68,10.21,10.05l-0.07,20.8h7.97v-20.87c0-11.55-7.14-17.11-16.27-17.11c-4.91-0.03-9.58,2.2-12.74,6.07l-0.47-5.17
	h-7.21v37.07h7.96v-19.6c-0.11-2.96,0.96-5.85,2.97-7.97C582.75,404.42,585.52,403.24,588.4,403.27z M624.62,403.12
	c2.45-4.43,8.68-6.97,13.27-6.97c10.9,0,19.19,6.84,19.19,19.43c0,12.31-8.91,19.43-19.26,19.43c-4.77,0-10.21-2.02-13.21-6.76
	l-0.45,5.87h-7.45v-52.45h7.97L624.62,403.12z M628.59,424.37c-2.29-2.31-3.56-5.49-3.51-8.8c-0.02-3.29,1.26-6.45,3.55-8.74
	c2.29-2.29,5.38-3.53,8.57-3.42c6.89,0,11.95,4.65,11.95,12.16c0,7.51-5.03,12.24-11.95,12.24
	C634,427.93,630.89,426.69,628.59,424.37z M673.74,434.12h-7.97v-52.45h7.97V434.12z M702.37,427.88c-6.68,0-10.29-4.35-10.29-10.65
	l0.03-20.18h-7.9v20.25c0,11.19,6.64,17.71,15.93,17.71c5.01,0.17,9.83-2.04,13.05-6l0.47,5.11h7.12v-37.07h-7.9v19.65
	c0.12,2.94-0.93,5.81-2.92,7.92C707.97,426.73,705.23,427.91,702.37,427.88z M749.8,427.81c3.98,0,8.59-1.37,10.98-3.98l5.14,4.87
	c-3.92,4.28-10.43,6.3-16.27,6.3c-12.43,0-20.41-7.58-20.41-19.43c0-11.25,8.29-19.43,20.27-19.43c11.12,0,18.8,6.37,18.8,19.14
	c0,0.89-0.06,1.85-0.12,2.81c-0.01,0.16-0.02,0.32-0.03,0.48h-30.7C738.14,424.35,742.81,427.81,749.8,427.81z M737.54,412.13
	c1.19-6,6.18-9.08,11.95-9.08c6.52,0,10.51,3.14,10.99,9.08H737.54z"/>
</svg>
